<svg xmlns="http://www.w3.org/2000/svg" viewBox="0 0 900 400" font-family="Arial,sans-serif">
  <defs>
    <marker id="a" markerWidth="7" markerHeight="5" refX="6" refY="2.5" orient="auto">
      <polygon points="0,0 7,2.5 0,5" fill="#555"/>
    </marker>
  </defs>
  <rect width="900" height="400" fill="#f6f6f6"/>
  <rect x="0"   y="0" width="169" height="360" fill="#fde8dc"/>
  <rect x="173" y="0" width="169" height="360" fill="#e2f4ea"/>
  <rect x="346" y="0" width="209" height="360" fill="#ddeaf0"/>
  <rect x="559" y="0" width="149" height="360" fill="#e8e4f8"/>
  <rect x="712" y="0" width="188" height="360" fill="#fdf6dc"/>
  <line x1="171" y1="0" x2="171" y2="360" stroke="#ddd" stroke-width="2"/>
  <line x1="344" y1="0" x2="344" y2="360" stroke="#ddd" stroke-width="2"/>
  <line x1="557" y1="0" x2="557" y2="360" stroke="#ddd" stroke-width="2"/>
  <line x1="710" y1="0" x2="710" y2="360" stroke="#ddd" stroke-width="2"/>
  <rect x="5" y="7" width="160" height="30" rx="5" fill="#c0503a"/>
  <text x="85" y="27" text-anchor="middle" fill="white" font-size="11" font-weight="bold">Histopath. Slides</text>
  <rect x="178" y="7" width="160" height="30" rx="5" fill="#2d9e5e"/>
  <text x="258" y="27" text-anchor="middle" fill="white" font-size="11" font-weight="bold">Input Samples</text>
  <rect x="351" y="7" width="200" height="30" rx="5" fill="#2d7a9e"/>
  <text x="451" y="27" text-anchor="middle" fill="white" font-size="11" font-weight="bold">Deep Learning Models</text>
  <rect x="564" y="7" width="140" height="30" rx="5" fill="#6050c0"/>
  <text x="634" y="27" text-anchor="middle" fill="white" font-size="11" font-weight="bold">Algorithm</text>
  <rect x="717" y="7" width="178" height="30" rx="5" fill="#c0a000"/>
  <text x="806" y="27" text-anchor="middle" fill="white" font-size="11" font-weight="bold">Results</text>
  <rect x="12" y="58" width="148" height="140" rx="4" fill="#f0eaf6" stroke="#ccc"/>
  <ellipse cx="38" cy="88" rx="12" ry="10" fill="#9060a8" opacity="0.5"/>
  <ellipse cx="62" cy="78" rx="9" ry="8" fill="#a070b8" opacity="0.6"/>
  <ellipse cx="80" cy="95" rx="11" ry="9" fill="#8050a0" opacity="0.5"/>
  <ellipse cx="110" cy="82" rx="10" ry="8" fill="#9868b0" opacity="0.6"/>
  <ellipse cx="48" cy="115" rx="8" ry="7" fill="#b080c0" opacity="0.4"/>
  <ellipse cx="90" cy="120" rx="13" ry="11" fill="#7848a0" opacity="0.5"/>
  <ellipse cx="130" cy="110" rx="9" ry="8" fill="#9060a8" opacity="0.5"/>
  <ellipse cx="70" cy="145" rx="10" ry="8" fill="#a070b8" opacity="0.4"/>
  <ellipse cx="115" cy="148" rx="8" ry="7" fill="#8858a8" opacity="0.5"/>
  <text x="85" y="222" text-anchor="middle" fill="#666" font-size="10">H&amp;E Stained Tissue</text>
  <text x="85" y="236" text-anchor="middle" fill="#888" font-size="9">Colon · Lung</text>
  <text x="258" y="60" text-anchor="middle" fill="#2d9e5e" font-size="10" font-weight="bold">a) 2-class (colon)</text>
  <rect x="184" y="68" width="55" height="42" rx="3" fill="white" stroke="#bbb"/>
  <rect x="181" y="65" width="55" height="42" rx="3" fill="#ddd" stroke="#bbb"/>
  <rect x="192" y="73" width="16" height="14" rx="2" fill="#9060a8" opacity="0.6"/>
  <rect x="213" y="76" width="12" height="11" rx="2" fill="#7848a0" opacity="0.5"/>
  <text x="258" y="122" text-anchor="middle" fill="#2d9e5e" font-size="10" font-weight="bold">b) 3-class (lung)</text>
  <rect x="184" y="130" width="55" height="42" rx="3" fill="white" stroke="#bbb"/>
  <rect x="181" y="127" width="55" height="42" rx="3" fill="#ddd" stroke="#bbb"/>
  <rect x="192" y="135" width="14" height="12" rx="2" fill="#a070b8" opacity="0.6"/>
  <text x="258" y="186" text-anchor="middle" fill="#2d9e5e" font-size="10" font-weight="bold">c) 5-class mixed</text>
  <rect x="184" y="194" width="55" height="42" rx="3" fill="white" stroke="#bbb"/>
  <rect x="181" y="191" width="55" height="42" rx="3" fill="#ddd" stroke="#bbb"/>
  <rect x="192" y="199" width="15" height="13" rx="2" fill="#6050a0" opacity="0.6"/>
  <text x="400" y="58" fill="#2d7a9e" font-size="9" font-weight="bold">a) ResNet18</text>
  <rect x="351" y="65" width="12" height="85" rx="2" fill="#2d7a9e" opacity="0.85"/>
  <rect x="367" y="57" width="12" height="93" rx="2" fill="#2d7a9e" opacity="0.85"/>
  <rect x="383" y="62" width="12" height="88" rx="2" fill="#3d8aae" opacity="0.85"/>
  <rect x="399" y="72" width="12" height="78" rx="2" fill="#3d8aae" opacity="0.85"/>
  <rect x="415" y="82" width="12" height="68" rx="2" fill="#4d9abe" opacity="0.85"/>
  <rect x="431" y="90" width="12" height="56" rx="2" fill="#5daace" opacity="0.85"/>
  <rect x="447" y="99" width="12" height="42" rx="2" fill="#6db8d8" opacity="0.85"/>
  <rect x="490" y="58" fill="#2d7a9e" font-size="9" font-weight="bold">b) EfficientNet-B4</rect>
  <rect x="487" y="65" width="10" height="90" rx="2" fill="#1d6a8e" opacity="0.85"/>
  <rect x="501" y="55" width="10" height="100" rx="2" fill="#1d6a8e" opacity="0.85"/>
  <rect x="515" y="62" width="10" height="93" rx="2" fill="#2d7a9e" opacity="0.85"/>
  <rect x="529" y="74" width="10" height="81" rx="2" fill="#3d8aae" opacity="0.85"/>
  <rect x="543" y="83" width="10" height="72" rx="2" fill="#4d9abe" opacity="0.85"/>
  <rect x="357" y="185" width="190" height="40" rx="5" fill="white" stroke="#2d7a9e" stroke-width="1.5"/>
  <text x="452" y="205" text-anchor="middle" fill="#2d7a9e" font-size="10" font-weight="bold">Cross-Entropy Loss</text>
  <text x="452" y="219" text-anchor="middle" fill="#777" font-size="9">Softmax · GPU accelerated</text>
  <rect x="566" y="58" width="136" height="110" rx="6" fill="white" stroke="#6050c0" stroke-width="2"/>
  <text x="634" y="78" text-anchor="middle" fill="#6050c0" font-size="10" font-weight="bold">Adaptive Beta</text>
  <text x="634" y="94" text-anchor="middle" fill="#6050c0" font-size="10" font-weight="bold">Hill-Climbing</text>
  <text x="634" y="112" text-anchor="middle" fill="#6050c0" font-size="11" font-weight="bold">Whale Optim.</text>
  <text x="634" y="130" text-anchor="middle" fill="#777" font-size="9">Hyperparameter tuning</text>
  <text x="634" y="146" text-anchor="middle" fill="#777" font-size="9">WOA-based</text>
  <rect x="566" y="185" width="136" height="40" rx="5" fill="white" stroke="#aaa"/>
  <text x="634" y="205" text-anchor="middle" fill="#333" font-size="10" font-weight="bold">Adam Optimizer</text>
  <text x="634" y="219" text-anchor="middle" fill="#777" font-size="9">LR scheduler</text>
  <text x="806" y="60" text-anchor="middle" fill="#c0a000" font-size="10" font-weight="bold">Colon tissue</text>
  <text x="720" y="78" fill="#555" font-size="9">colon_n</text>
  <rect x="766" y="68" width="105" height="10" rx="3" fill="#eee"/>
  <rect x="766" y="68" width="97" height="10" rx="3" fill="#9060a8" opacity="0.7"/>
  <text x="720" y="95" fill="#555" font-size="9">colon_aca</text>
  <rect x="766" y="85" width="105" height="10" rx="3" fill="#eee"/>
  <rect x="766" y="85" width="88" height="10" rx="3" fill="#c04080" opacity="0.7"/>
  <line x1="714" y1="108" x2="895" y2="108" stroke="#eee"/>
  <text x="806" y="124" text-anchor="middle" fill="#c0a000" font-size="10" font-weight="bold">Lung tissue</text>
  <text x="720" y="142" fill="#555" font-size="9">lung_n</text>
  <rect x="766" y="132" width="105" height="10" rx="3" fill="#eee"/>
  <rect x="766" y="132" width="100" height="10" rx="3" fill="#2d7a9e" opacity="0.7"/>
  <text x="720" y="159" fill="#555" font-size="9">lung_aca</text>
  <rect x="766" y="149" width="105" height="10" rx="3" fill="#eee"/>
  <rect x="766" y="149" width="82" height="10" rx="3" fill="#4d9abe" opacity="0.7"/>
  <text x="720" y="176" fill="#555" font-size="9">lung_scc</text>
  <rect x="766" y="166" width="105" height="10" rx="3" fill="#eee"/>
  <rect x="766" y="166" width="77" height="10" rx="3" fill="#6db8d8" opacity="0.7"/>
  <line x1="714" y1="185" x2="895" y2="185" stroke="#eee"/>
  <text x="806" y="205" text-anchor="middle" fill="#2d9e5e" font-size="11" font-weight="bold">Acc: 98.2%</text>
  <text x="806" y="222" text-anchor="middle" fill="#666" font-size="9">TF Serving · GPU</text>
  <line x1="163" y1="145" x2="176" y2="145" stroke="#555" stroke-width="2" marker-end="url(#a)"/>
  <line x1="337" y1="160" x2="349" y2="160" stroke="#555" stroke-width="2" marker-end="url(#a)"/>
  <line x1="551" y1="160" x2="563" y2="160" stroke="#555" stroke-width="2" marker-end="url(#a)"/>
  <line x1="704" y1="160" x2="717" y2="160" stroke="#555" stroke-width="2" marker-end="url(#a)"/>
  <rect x="0" y="362" width="900" height="38" fill="#2d3748"/>
  <text x="450" y="386" text-anchor="middle" fill="#ccc" font-size="11">Cancer Detection via TF Serving  ·  TensorFlow · GPU · Histopathology · WOA optimizer</text>
</svg>
