<svg xmlns="http://www.w3.org/2000/svg" viewBox="0 0 800 400" font-family="Arial,sans-serif">
  <defs>
    <marker id="a" markerWidth="7" markerHeight="5" refX="6" refY="2.5" orient="auto">
      <polygon points="0,0 7,2.5 0,5" fill="#555"/>
    </marker>
  </defs>
  <rect width="800" height="400" fill="#f6f6f6"/>
  <rect x="0"   y="0" width="197" height="360" fill="#fde8f8"/>
  <rect x="201" y="0" width="197" height="360" fill="#e8f0ff"/>
  <rect x="401" y="0" width="197" height="360" fill="#e8fdf0"/>
  <rect x="601" y="0" width="199" height="360" fill="#fff8e0"/>
  <line x1="199" y1="0" x2="199" y2="360" stroke="#ddd" stroke-width="2"/>
  <line x1="399" y1="0" x2="399" y2="360" stroke="#ddd" stroke-width="2"/>
  <line x1="599" y1="0" x2="599" y2="360" stroke="#ddd" stroke-width="2"/>
  <rect x="7" y="7" width="184" height="30" rx="5" fill="#a030a0"/>
  <text x="99" y="27" text-anchor="middle" fill="white" font-size="12" font-weight="bold">User Profiles</text>
  <rect x="207" y="7" width="184" height="30" rx="5" fill="#3050d0"/>
  <text x="299" y="27" text-anchor="middle" fill="white" font-size="12" font-weight="bold">Neural Engine</text>
  <rect x="407" y="7" width="184" height="30" rx="5" fill="#208060"/>
  <text x="499" y="27" text-anchor="middle" fill="white" font-size="12" font-weight="bold">Similarity</text>
  <rect x="607" y="7" width="184" height="30" rx="5" fill="#b08000"/>
  <text x="699" y="27" text-anchor="middle" fill="white" font-size="12" font-weight="bold">Matched Pairs</text>
  <!-- User profile avatars A B C D -->
  <circle cx="42" cy="90" r="22" fill="#a030a0" opacity="0.75"/>
  <text x="42" y="95" text-anchor="middle" fill="white" font-size="14" font-weight="bold">A</text>
  <text x="42" y="122" text-anchor="middle" fill="#666" font-size="9">Skills · Exp</text>
  <circle cx="99" cy="90" r="22" fill="#c040c0" opacity="0.75"/>
  <text x="99" y="95" text-anchor="middle" fill="white" font-size="14" font-weight="bold">B</text>
  <text x="99" y="122" text-anchor="middle" fill="#666" font-size="9">Bio · Prefs</text>
  <circle cx="42" cy="185" r="22" fill="#8020a0" opacity="0.75"/>
  <text x="42" y="190" text-anchor="middle" fill="white" font-size="14" font-weight="bold">C</text>
  <text x="42" y="217" text-anchor="middle" fill="#666" font-size="9">Goals · Tags</text>
  <circle cx="99" cy="185" r="22" fill="#b050b0" opacity="0.75"/>
  <text x="99" y="190" text-anchor="middle" fill="white" font-size="14" font-weight="bold">D</text>
  <text x="99" y="217" text-anchor="middle" fill="#666" font-size="9">Location</text>
  <text x="99" y="265" text-anchor="middle" fill="#888" font-size="9">LinkedIn-style profiles</text>
  <!-- Neural engine embedding tower -->
  <text x="299" y="58" text-anchor="middle" fill="#3050d0" font-size="10" font-weight="bold">Embedding Layers</text>
  <rect x="222" y="65" width="14" height="88" rx="2" fill="#3050d0" opacity="0.9"/>
  <rect x="240" y="72" width="14" height="81" rx="2" fill="#3050d0" opacity="0.9"/>
  <rect x="258" y="80" width="14" height="73" rx="2" fill="#4060e0" opacity="0.85"/>
  <rect x="276" y="90" width="14" height="63" rx="2" fill="#5070e8" opacity="0.85"/>
  <rect x="294" y="100" width="14" height="53" rx="2" fill="#6080f0" opacity="0.85"/>
  <rect x="312" y="112" width="14" height="41" rx="2" fill="#7090f0" opacity="0.85"/>
  <rect x="330" y="124" width="14" height="29" rx="2" fill="#80a0f8" opacity="0.85"/>
  <rect x="348" y="134" width="14" height="19" rx="2" fill="#90b0f8" opacity="0.85"/>
  <text x="299" y="178" text-anchor="middle" fill="#555" font-size="9">BERT · 768-dim</text>
  <rect x="222" y="195" width="155" height="40" rx="5" fill="white" stroke="#3050d0" stroke-width="1.5"/>
  <text x="299" y="215" text-anchor="middle" fill="#3050d0" font-size="11" font-weight="bold">Contrastive Loss</text>
  <text x="299" y="229" text-anchor="middle" fill="#777" font-size="9">Triplet · InfoNCE</text>
  <!-- Similarity bars -->
  <text x="499" y="58" text-anchor="middle" fill="#208060" font-size="10" font-weight="bold">Cosine Similarity</text>
  <text x="416" y="84" fill="#555" font-size="9">A–B</text>
  <rect x="445" y="74" width="130" height="11" rx="3" fill="#eee"/>
  <rect x="445" y="74" width="118" height="11" rx="3" fill="#208060" opacity="0.75"/>
  <text x="580" y="83" fill="#555" font-size="9">0.91</text>
  <text x="416" y="104" fill="#555" font-size="9">A–C</text>
  <rect x="445" y="94" width="130" height="11" rx="3" fill="#eee"/>
  <rect x="445" y="94" width="78" height="11" rx="3" fill="#30a070" opacity="0.75"/>
  <text x="580" y="103" fill="#555" font-size="9">0.60</text>
  <text x="416" y="124" fill="#555" font-size="9">B–D</text>
  <rect x="445" y="114" width="130" height="11" rx="3" fill="#eee"/>
  <rect x="445" y="114" width="52" height="11" rx="3" fill="#80c0a0" opacity="0.75"/>
  <text x="580" y="123" fill="#555" font-size="9">0.40</text>
  <text x="416" y="144" fill="#555" font-size="9">C–D</text>
  <rect x="445" y="134" width="130" height="11" rx="3" fill="#eee"/>
  <rect x="445" y="134" width="88" height="11" rx="3" fill="#208060" opacity="0.7"/>
  <text x="580" y="143" fill="#555" font-size="9">0.68</text>
  <line x1="409" y1="160" x2="589" y2="160" stroke="#eee"/>
  <text x="499" y="178" text-anchor="middle" fill="#208060" font-size="10" font-weight="bold">Top-K Retrieval</text>
  <text x="499" y="194" text-anchor="middle" fill="#666" font-size="9">ANN · FAISS index</text>
  <rect x="422" y="210" width="155" height="38" rx="5" fill="white" stroke="#208060" stroke-width="1.5"/>
  <text x="499" y="229" text-anchor="middle" fill="#208060" font-size="10" font-weight="bold">Threshold: 0.75</text>
  <text x="499" y="244" text-anchor="middle" fill="#777" font-size="9">Match · Skip · Rank</text>
  <!-- Matched pairs -->
  <text x="699" y="62" text-anchor="middle" fill="#b08000" font-size="10" font-weight="bold">Best Matches</text>
  <circle cx="640" cy="95" r="16" fill="#a030a0" opacity="0.7"/>
  <text x="640" y="100" text-anchor="middle" fill="white" font-size="11" font-weight="bold">A</text>
  <circle cx="760" cy="95" r="16" fill="#c040c0" opacity="0.7"/>
  <text x="760" y="100" text-anchor="middle" fill="white" font-size="11" font-weight="bold">B</text>
  <line x1="656" y1="95" x2="744" y2="95" stroke="#b08000" stroke-width="2" stroke-dasharray="4,3"/>
  <text x="700" y="88" text-anchor="middle" fill="#b08000" font-size="9">0.91</text>
  <circle cx="640" cy="160" r="16" fill="#8020a0" opacity="0.7"/>
  <text x="640" y="165" text-anchor="middle" fill="white" font-size="11" font-weight="bold">C</text>
  <circle cx="760" cy="160" r="16" fill="#b050b0" opacity="0.7"/>
  <text x="760" y="165" text-anchor="middle" fill="white" font-size="11" font-weight="bold">D</text>
  <line x1="656" y1="160" x2="744" y2="160" stroke="#b08000" stroke-width="2" stroke-dasharray="4,3"/>
  <text x="700" y="153" text-anchor="middle" fill="#b08000" font-size="9">0.68</text>
  <line x1="609" y1="190" x2="789" y2="190" stroke="#eee"/>
  <text x="699" y="212" text-anchor="middle" fill="#b08000" font-size="10" font-weight="bold">Precision@5: 0.88</text>
  <text x="699" y="230" text-anchor="middle" fill="#666" font-size="9">NDCG: 0.83 · MRR: 0.91</text>
  <line x1="189" y1="145" x2="213" y2="145" stroke="#555" stroke-width="2" marker-end="url(#a)"/>
  <line x1="389" y1="160" x2="414" y2="160" stroke="#555" stroke-width="2" marker-end="url(#a)"/>
  <line x1="589" y1="145" x2="614" y2="130" stroke="#555" stroke-width="2" marker-end="url(#a)"/>
  <rect x="0" y="362" width="800" height="38" fill="#2d3748"/>
  <text x="400" y="386" text-anchor="middle" fill="#ccc" font-size="11">CosmosAId Matching Engine  ·  PyTorch · BERT · FAISS · Contrastive Learning · FastAPI</text>
</svg>
