<svg xmlns="http://www.w3.org/2000/svg" viewBox="0 0 800 400" font-family="Arial,sans-serif">
  <defs>
    <marker id="a" markerWidth="7" markerHeight="5" refX="6" refY="2.5" orient="auto">
      <polygon points="0,0 7,2.5 0,5" fill="#555"/>
    </marker>
  </defs>
  <rect width="800" height="400" fill="#f6f6f6"/>
  <rect x="0"   y="0" width="197" height="360" fill="#fde0e8"/>
  <rect x="201" y="0" width="197" height="360" fill="#e2f4ea"/>
  <rect x="401" y="0" width="197" height="360" fill="#dce8fc"/>
  <rect x="601" y="0" width="199" height="360" fill="#ede0fc"/>
  <line x1="199" y1="0" x2="199" y2="360" stroke="#ddd" stroke-width="2"/>
  <line x1="399" y1="0" x2="399" y2="360" stroke="#ddd" stroke-width="2"/>
  <line x1="599" y1="0" x2="599" y2="360" stroke="#ddd" stroke-width="2"/>
  <rect x="7" y="7" width="184" height="30" rx="5" fill="#c04070"/>
  <text x="99" y="27" text-anchor="middle" fill="white" font-size="12" font-weight="bold">Patient Data</text>
  <rect x="207" y="7" width="184" height="30" rx="5" fill="#2d9e5e"/>
  <text x="299" y="27" text-anchor="middle" fill="white" font-size="12" font-weight="bold">Feature Engineering</text>
  <rect x="407" y="7" width="184" height="30" rx="5" fill="#2c65c0"/>
  <text x="499" y="27" text-anchor="middle" fill="white" font-size="12" font-weight="bold">Ensemble Models</text>
  <rect x="607" y="7" width="184" height="30" rx="5" fill="#7040b0"/>
  <text x="699" y="27" text-anchor="middle" fill="white" font-size="12" font-weight="bold">Predictions</text>
  <rect x="10" y="55" width="178" height="175" rx="5" fill="white" stroke="#ccc"/>
  <rect x="10" y="55" width="178" height="22" rx="5" fill="#f8d8e4"/>
  <text x="22" y="71" fill="#c04070" font-size="9" font-weight="bold">Age</text>
  <text x="60" y="71" fill="#c04070" font-size="9" font-weight="bold">BP</text>
  <text x="95" y="71" fill="#c04070" font-size="9" font-weight="bold">Chol</text>
  <text x="135" y="71" fill="#c04070" font-size="9" font-weight="bold">Glucose</text>
  <line x1="10" y1="77" x2="188" y2="77" stroke="#eee"/>
  <text x="22" y="93" fill="#555" font-size="9">58</text><text x="60" y="93" fill="#555" font-size="9">130</text><text x="95" y="93" fill="#555" font-size="9">240</text><text x="135" y="93" fill="#555" font-size="9">102</text>
  <text x="22" y="109" fill="#555" font-size="9">45</text><text x="60" y="109" fill="#555" font-size="9">110</text><text x="95" y="109" fill="#555" font-size="9">195</text><text x="135" y="109" fill="#555" font-size="9">88</text>
  <text x="22" y="125" fill="#555" font-size="9">62</text><text x="60" y="125" fill="#555" font-size="9">145</text><text x="95" y="125" fill="#555" font-size="9">278</text><text x="135" y="125" fill="#555" font-size="9">115</text>
  <text x="22" y="141" fill="#555" font-size="9">37</text><text x="60" y="141" fill="#555" font-size="9">95</text><text x="95" y="141" fill="#555" font-size="9">182</text><text x="135" y="141" fill="#555" font-size="9">94</text>
  <text x="22" y="157" fill="#999" font-size="9">···</text>
  <text x="99" y="200" text-anchor="middle" fill="#888" font-size="9">UCI Heart + Liver</text>
  <text x="99" y="214" text-anchor="middle" fill="#888" font-size="9">303 + 583 records</text>
  <rect x="216" y="55" width="170" height="42" rx="5" fill="white" stroke="#2d9e5e" stroke-width="2"/>
  <text x="301" y="75" text-anchor="middle" fill="#2d9e5e" font-size="11" font-weight="bold">Preprocessing</text>
  <text x="301" y="90" text-anchor="middle" fill="#777" font-size="9">Missing impute · Scaling</text>
  <line x1="301" y1="100" x2="301" y2="125" stroke="#888" stroke-width="1.5" marker-end="url(#a)"/>
  <rect x="216" y="129" width="170" height="42" rx="5" fill="white" stroke="#aaa"/>
  <text x="301" y="149" text-anchor="middle" fill="#333" font-size="11" font-weight="bold">Feature Selection</text>
  <text x="301" y="164" text-anchor="middle" fill="#777" font-size="9">Chi-square · ANOVA</text>
  <line x1="301" y1="174" x2="301" y2="199" stroke="#888" stroke-width="1.5" marker-end="url(#a)"/>
  <rect x="216" y="203" width="170" height="42" rx="5" fill="white" stroke="#aaa"/>
  <text x="301" y="223" text-anchor="middle" fill="#333" font-size="11" font-weight="bold">Train / Test Split</text>
  <text x="301" y="238" text-anchor="middle" fill="#777" font-size="9">80% train · 20% test</text>
  <text x="450" y="58" fill="#2c65c0" font-size="10" font-weight="bold">Random Forest</text>
  <line x1="466" y1="70" x2="446" y2="90" stroke="#4a70c0" stroke-width="1.5"/>
  <line x1="466" y1="70" x2="486" y2="90" stroke="#4a70c0" stroke-width="1.5"/>
  <rect x="459" y="65" width="14" height="10" rx="2" fill="#4a70c0"/>
  <rect x="439" y="88" width="14" height="10" rx="2" fill="#6a90e0"/>
  <rect x="479" y="88" width="14" height="10" rx="2" fill="#6a90e0"/>
  <line x1="446" y1="98" x2="436" y2="112" stroke="#6a90e0" stroke-width="1.5"/>
  <line x1="446" y1="98" x2="456" y2="112" stroke="#6a90e0" stroke-width="1.5"/>
  <rect x="429" y="110" width="12" height="9" rx="2" fill="#8ab0f0"/>
  <rect x="449" y="110" width="12" height="9" rx="2" fill="#8ab0f0"/>
  <text x="510" y="58" fill="#2c65c0" font-size="10" font-weight="bold">Neural Net</text>
  <rect x="503" y="65" width="10" height="80" rx="2" fill="#4a70c0" opacity="0.85"/>
  <rect x="517" y="70" width="10" height="70" rx="2" fill="#5a80d0" opacity="0.85"/>
  <rect x="531" y="78" width="10" height="55" rx="2" fill="#6a90e0" opacity="0.85"/>
  <rect x="545" y="90" width="10" height="40" rx="2" fill="#7aa0e8" opacity="0.85"/>
  <rect x="559" y="100" width="10" height="26" rx="2" fill="#8ab0f0" opacity="0.85"/>
  <text x="499" y="175" text-anchor="middle" fill="#555" font-size="9">Acc RF: 88.5%</text>
  <text x="499" y="189" text-anchor="middle" fill="#555" font-size="9">Acc NN: 90.2%</text>
  <rect x="416" y="205" width="170" height="40" rx="5" fill="white" stroke="#2c65c0" stroke-width="1.5"/>
  <text x="501" y="225" text-anchor="middle" fill="#2c65c0" font-size="11" font-weight="bold">Ensemble Vote</text>
  <text x="501" y="240" text-anchor="middle" fill="#777" font-size="9">Majority · Weighted avg</text>
  <text x="699" y="62" text-anchor="middle" fill="#7040b0" font-size="11" font-weight="bold">Heart Disease</text>
  <text x="615" y="84" fill="#555" font-size="10">Risk: High</text>
  <rect x="670" y="74" width="110" height="11" rx="3" fill="#eee"/>
  <rect x="670" y="74" width="90" height="11" rx="3" fill="#c04070" opacity="0.8"/>
  <text x="784" y="84" fill="#555" font-size="10">0.82</text>
  <text x="615" y="102" fill="#555" font-size="10">Risk: Low</text>
  <rect x="670" y="92" width="110" height="11" rx="3" fill="#eee"/>
  <rect x="670" y="92" width="33" height="11" rx="3" fill="#2d9e5e" opacity="0.8"/>
  <text x="784" y="102" fill="#555" font-size="10">0.30</text>
  <line x1="609" y1="120" x2="789" y2="120" stroke="#eee"/>
  <text x="699" y="140" text-anchor="middle" fill="#7040b0" font-size="11" font-weight="bold">Liver Disease</text>
  <text x="615" y="162" fill="#555" font-size="10">Positive</text>
  <rect x="670" y="152" width="110" height="11" rx="3" fill="#eee"/>
  <rect x="670" y="152" width="75" height="11" rx="3" fill="#7040b0" opacity="0.8"/>
  <text x="784" y="162" fill="#555" font-size="10">0.68</text>
  <text x="615" y="180" fill="#555" font-size="10">Negative</text>
  <rect x="670" y="170" width="110" height="11" rx="3" fill="#eee"/>
  <rect x="670" y="170" width="44" height="11" rx="3" fill="#2d9e5e" opacity="0.8"/>
  <text x="784" y="180" fill="#555" font-size="10">0.40</text>
  <line x1="609" y1="196" x2="789" y2="196" stroke="#eee"/>
  <text x="699" y="218" text-anchor="middle" fill="#2c65c0" font-size="10" font-weight="bold">Best Acc: 90.2%</text>
  <line x1="189" y1="155" x2="213" y2="155" stroke="#555" stroke-width="2" marker-end="url(#a)"/>
  <line x1="389" y1="225" x2="414" y2="225" stroke="#555" stroke-width="2" marker-end="url(#a)"/>
  <line x1="589" y1="180" x2="614" y2="180" stroke="#555" stroke-width="2" marker-end="url(#a)"/>
  <rect x="0" y="362" width="800" height="38" fill="#2d3748"/>
  <text x="400" y="386" text-anchor="middle" fill="#ccc" font-size="11">Disease Prediction  ·  scikit-learn · Random Forest · Neural Network · UCI datasets</text>
</svg>
