<svg xmlns="http://www.w3.org/2000/svg" viewBox="0 0 800 400" font-family="Arial,sans-serif">
  <defs>
    <marker id="a" markerWidth="7" markerHeight="5" refX="6" refY="2.5" orient="auto">
      <polygon points="0,0 7,2.5 0,5" fill="#555"/>
    </marker>
  </defs>
  <rect width="800" height="400" fill="#f6f6f6"/>
  <rect x="0"   y="0" width="197" height="360" fill="#e8f4fd"/>
  <rect x="201" y="0" width="197" height="360" fill="#fdf4e0"/>
  <rect x="401" y="0" width="197" height="360" fill="#edf8ee"/>
  <rect x="601" y="0" width="199" height="360" fill="#fde8e8"/>
  <line x1="199" y1="0" x2="199" y2="360" stroke="#ddd" stroke-width="2"/>
  <line x1="399" y1="0" x2="399" y2="360" stroke="#ddd" stroke-width="2"/>
  <line x1="599" y1="0" x2="599" y2="360" stroke="#ddd" stroke-width="2"/>
  <rect x="7" y="7" width="184" height="30" rx="5" fill="#1a72b0"/>
  <text x="99" y="27" text-anchor="middle" fill="white" font-size="12" font-weight="bold">Network Traffic</text>
  <rect x="207" y="7" width="184" height="30" rx="5" fill="#c08820"/>
  <text x="299" y="27" text-anchor="middle" fill="white" font-size="12" font-weight="bold">Feature Extraction</text>
  <rect x="407" y="7" width="184" height="30" rx="5" fill="#2a9040"/>
  <text x="499" y="27" text-anchor="middle" fill="white" font-size="12" font-weight="bold">Detection Models</text>
  <rect x="607" y="7" width="184" height="30" rx="5" fill="#c03030"/>
  <text x="699" y="27" text-anchor="middle" fill="white" font-size="12" font-weight="bold">Decision</text>
  <!-- Network traffic log table -->
  <rect x="10" y="55" width="178" height="175" rx="5" fill="white" stroke="#ccc"/>
  <rect x="10" y="55" width="178" height="22" rx="5" fill="#d0e8f8"/>
  <text x="22" y="71" fill="#1a72b0" font-size="9" font-weight="bold">SrcIP</text>
  <text x="75" y="71" fill="#1a72b0" font-size="9" font-weight="bold">DstIP</text>
  <text x="130" y="71" fill="#1a72b0" font-size="9" font-weight="bold">Proto</text>
  <text x="165" y="71" fill="#1a72b0" font-size="9" font-weight="bold">Len</text>
  <line x1="10" y1="77" x2="188" y2="77" stroke="#eee"/>
  <text x="22" y="93" fill="#555" font-size="8">192.168.1.4</text><text x="75" y="93" fill="#555" font-size="8">10.0.0.1</text><text x="130" y="93" fill="#555" font-size="8">TCP</text><text x="165" y="93" fill="#555" font-size="8">512</text>
  <text x="22" y="109" fill="#555" font-size="8">10.0.0.5</text><text x="75" y="109" fill="#555" font-size="8">192.168.2.1</text><text x="130" y="109" fill="#555" font-size="8">UDP</text><text x="165" y="109" fill="#555" font-size="8">88</text>
  <text x="22" y="125" fill="#e00" font-size="8">203.0.113.9</text><text x="75" y="125" fill="#e00" font-size="8">10.0.0.1</text><text x="130" y="125" fill="#555" font-size="8">ICMP</text><text x="165" y="125" fill="#e00" font-size="8">1480</text>
  <text x="22" y="141" fill="#555" font-size="8">172.16.0.3</text><text x="75" y="141" fill="#555" font-size="8">10.0.0.2</text><text x="130" y="141" fill="#555" font-size="8">TCP</text><text x="165" y="141" fill="#555" font-size="8">256</text>
  <text x="22" y="157" fill="#999" font-size="9">···</text>
  <text x="99" y="207" text-anchor="middle" fill="#888" font-size="9">NSL-KDD · CICIDS</text>
  <text x="99" y="221" text-anchor="middle" fill="#888" font-size="9">125,000+ packets</text>
  <!-- Feature extraction bars -->
  <text x="299" y="58" text-anchor="middle" fill="#c08820" font-size="10" font-weight="bold">78 Features</text>
  <rect x="216" y="65" width="8" height="78" rx="1" fill="#d09830" opacity="0.85"/>
  <rect x="228" y="72" width="8" height="71" rx="1" fill="#d09830" opacity="0.85"/>
  <rect x="240" y="68" width="8" height="75" rx="1" fill="#e0a840" opacity="0.85"/>
  <rect x="252" y="75" width="8" height="68" rx="1" fill="#e0a840" opacity="0.85"/>
  <rect x="264" y="80" width="8" height="63" rx="1" fill="#f0b850" opacity="0.85"/>
  <rect x="276" y="70" width="8" height="73" rx="1" fill="#f0b850" opacity="0.85"/>
  <rect x="288" y="77" width="8" height="66" rx="1" fill="#e8b040" opacity="0.85"/>
  <rect x="300" y="84" width="8" height="59" rx="1" fill="#e8b040" opacity="0.85"/>
  <rect x="312" y="90" width="8" height="53" rx="1" fill="#f0c060" opacity="0.85"/>
  <rect x="324" y="95" width="8" height="48" rx="1" fill="#f0c060" opacity="0.85"/>
  <rect x="336" y="100" width="8" height="43" rx="1" fill="#f8c870" opacity="0.85"/>
  <rect x="348" y="105" width="8" height="38" rx="1" fill="#f8c870" opacity="0.85"/>
  <rect x="360" y="109" width="8" height="34" rx="1" fill="#f8d080" opacity="0.85"/>
  <text x="299" y="165" text-anchor="middle" fill="#555" font-size="9">PCA · SelectKBest</text>
  <rect x="216" y="180" width="170" height="40" rx="5" fill="white" stroke="#c08820" stroke-width="1.5"/>
  <text x="301" y="200" text-anchor="middle" fill="#c08820" font-size="11" font-weight="bold">Normalization</text>
  <text x="301" y="215" text-anchor="middle" fill="#777" font-size="9">Min-Max · StandardScaler</text>
  <!-- Detection models -->
  <text x="450" y="58" fill="#2a9040" font-size="10" font-weight="bold">3-Layer MLP</text>
  <rect x="416" y="65" width="14" height="90" rx="2" fill="#3aaa50" opacity="0.9"/>
  <rect x="434" y="73" width="14" height="82" rx="2" fill="#3aaa50" opacity="0.9"/>
  <rect x="452" y="82" width="14" height="73" rx="2" fill="#4aba60" opacity="0.9"/>
  <rect x="470" y="93" width="14" height="62" rx="2" fill="#5aca70" opacity="0.9"/>
  <rect x="488" y="106" width="14" height="49" rx="2" fill="#6ad880" opacity="0.9"/>
  <text x="520" y="58" fill="#2a9040" font-size="10" font-weight="bold">RF</text>
  <line x1="530" y1="70" x2="516" y2="88" stroke="#3aaa50" stroke-width="1.5"/>
  <line x1="530" y1="70" x2="544" y2="88" stroke="#3aaa50" stroke-width="1.5"/>
  <rect x="524" y="65" width="12" height="9" rx="1" fill="#3aaa50"/>
  <rect x="509" y="86" width="12" height="9" rx="1" fill="#5aca70"/>
  <rect x="537" y="86" width="12" height="9" rx="1" fill="#5aca70"/>
  <line x1="515" y1="95" x2="508" y2="108" stroke="#5aca70" stroke-width="1.2"/>
  <line x1="515" y1="95" x2="522" y2="108" stroke="#5aca70" stroke-width="1.2"/>
  <rect x="502" y="106" width="10" height="8" rx="1" fill="#7adc90"/>
  <rect x="516" y="106" width="10" height="8" rx="1" fill="#7adc90"/>
  <text x="499" y="165" text-anchor="middle" fill="#555" font-size="9">Acc MLP: 97.4%</text>
  <text x="499" y="179" text-anchor="middle" fill="#555" font-size="9">Acc RF:  98.1%</text>
  <rect x="416" y="200" width="170" height="38" rx="5" fill="white" stroke="#2a9040" stroke-width="1.5"/>
  <text x="501" y="219" text-anchor="middle" fill="#2a9040" font-size="11" font-weight="bold">Ensemble Vote</text>
  <text x="501" y="233" text-anchor="middle" fill="#777" font-size="9">Weighted · Stacking</text>
  <!-- Decision -->
  <text x="699" y="62" text-anchor="middle" fill="#c03030" font-size="11" font-weight="bold">Attack Classes</text>
  <text x="615" y="84" fill="#555" font-size="9">Normal</text>
  <rect x="660" y="74" width="110" height="10" rx="3" fill="#eee"/>
  <rect x="660" y="74" width="95" height="10" rx="3" fill="#2a9040" opacity="0.75"/>
  <text x="775" y="83" fill="#555" font-size="9">0.86</text>
  <text x="615" y="102" fill="#555" font-size="9">DoS</text>
  <rect x="660" y="92" width="110" height="10" rx="3" fill="#eee"/>
  <rect x="660" y="92" width="66" height="10" rx="3" fill="#c03030" opacity="0.75"/>
  <text x="775" y="101" fill="#555" font-size="9">0.60</text>
  <text x="615" y="120" fill="#555" font-size="9">Probe</text>
  <rect x="660" y="110" width="110" height="10" rx="3" fill="#eee"/>
  <rect x="660" y="110" width="44" height="10" rx="3" fill="#e06030" opacity="0.75"/>
  <text x="775" y="119" fill="#555" font-size="9">0.40</text>
  <text x="615" y="138" fill="#555" font-size="9">R2L</text>
  <rect x="660" y="128" width="110" height="10" rx="3" fill="#eee"/>
  <rect x="660" y="128" width="28" height="10" rx="3" fill="#e08030" opacity="0.75"/>
  <text x="775" y="137" fill="#555" font-size="9">0.25</text>
  <line x1="609" y1="155" x2="789" y2="155" stroke="#eee"/>
  <text x="699" y="175" text-anchor="middle" fill="#c03030" font-size="10" font-weight="bold">Best Acc: 98.6%</text>
  <text x="699" y="193" text-anchor="middle" fill="#666" font-size="9">F1: 0.974 · FPR: 0.012</text>
  <line x1="189" y1="145" x2="213" y2="145" stroke="#555" stroke-width="2" marker-end="url(#a)"/>
  <line x1="389" y1="160" x2="414" y2="160" stroke="#555" stroke-width="2" marker-end="url(#a)"/>
  <line x1="589" y1="175" x2="614" y2="175" stroke="#555" stroke-width="2" marker-end="url(#a)"/>
  <rect x="0" y="362" width="800" height="38" fill="#2d3748"/>
  <text x="400" y="386" text-anchor="middle" fill="#ccc" font-size="11">Intrusion Detection System  ·  Python · scikit-learn · MLP · Random Forest · NSL-KDD</text>
</svg>
