<svg xmlns="http://www.w3.org/2000/svg" viewBox="0 0 800 400">
  <defs>
    <linearGradient id="bg" x1="0" y1="0" x2="1" y2="1">
      <stop offset="0%" stop-color="#1e1b4b"/>
      <stop offset="50%" stop-color="#312e81"/>
      <stop offset="100%" stop-color="#1e3a5f"/>
    </linearGradient>
    <pattern id="grid" width="40" height="40" patternUnits="userSpaceOnUse">
      <path d="M40 0L0 0 0 40" fill="none" stroke="rgba(255,255,255,0.04)" stroke-width="1"/>
    </pattern>
  </defs>
  <rect width="800" height="400" fill="url(#bg)"/>
  <rect width="800" height="400" fill="url(#grid)"/>
  <!-- Document -->
  <rect x="240" y="55" width="185" height="250" rx="6" fill="rgba(255,255,255,0.07)" stroke="rgba(255,255,255,0.18)" stroke-width="1.5"/>
  <path d="M385 55 L425 55 L425 95 L385 95 Z" fill="rgba(255,255,255,0.05)" stroke="rgba(255,255,255,0.15)" stroke-width="1"/>
  <rect x="262" y="110" width="130" height="7" rx="3.5" fill="rgba(255,255,255,0.22)"/>
  <rect x="262" y="127" width="110" height="6" rx="3" fill="rgba(255,255,255,0.16)"/>
  <rect x="262" y="143" width="140" height="6" rx="3" fill="rgba(255,255,255,0.20)"/>
  <rect x="262" y="159" width="95" height="6" rx="3" fill="rgba(255,255,255,0.14)"/>
  <rect x="262" y="175" width="125" height="6" rx="3" fill="rgba(255,255,255,0.18)"/>
  <rect x="262" y="191" width="120" height="6" rx="3" fill="rgba(255,255,255,0.22)"/>
  <rect x="262" y="207" width="140" height="6" rx="3" fill="rgba(255,255,255,0.16)"/>
  <rect x="262" y="223" width="105" height="6" rx="3" fill="rgba(255,255,255,0.14)"/>
  <rect x="262" y="239" width="135" height="6" rx="3" fill="rgba(255,255,255,0.18)"/>
  <rect x="262" y="270" width="140" height="6" rx="3" fill="rgba(255,255,255,0.10)"/>
  <!-- Scan beam -->
  <rect x="240" y="168" width="185" height="16" fill="rgba(255,209,102,0.12)"/>
  <rect x="240" y="172" width="185" height="4" fill="rgba(255,209,102,0.65)"/>
  <!-- Arrow -->
  <path d="M442 180 L490 180" stroke="rgba(255,209,102,0.6)" stroke-width="2" stroke-dasharray="5,3"/>
  <polygon points="488,175 500,180 488,185" fill="rgba(255,209,102,0.7)"/>
  <!-- LLM Chip -->
  <rect x="508" y="142" width="110" height="76" rx="8" fill="rgba(255,209,102,0.07)" stroke="rgba(255,209,102,0.3)" stroke-width="1.5"/>
  <text x="563" y="175" text-anchor="middle" font-family="monospace" font-size="20" font-weight="bold" fill="rgba(255,209,102,0.88)">LLM</text>
  <text x="563" y="198" text-anchor="middle" font-family="monospace" font-size="10" fill="rgba(255,255,255,0.38)">GPT-4o Vision</text>
  <line x1="494" y1="158" x2="508" y2="158" stroke="rgba(255,209,102,0.28)" stroke-width="1.5"/>
  <line x1="494" y1="172" x2="508" y2="172" stroke="rgba(255,209,102,0.28)" stroke-width="1.5"/>
  <line x1="494" y1="186" x2="508" y2="186" stroke="rgba(255,209,102,0.28)" stroke-width="1.5"/>
  <line x1="494" y1="200" x2="508" y2="200" stroke="rgba(255,209,102,0.28)" stroke-width="1.5"/>
  <line x1="618" y1="158" x2="632" y2="158" stroke="rgba(255,209,102,0.28)" stroke-width="1.5"/>
  <line x1="618" y1="172" x2="632" y2="172" stroke="rgba(255,209,102,0.28)" stroke-width="1.5"/>
  <line x1="618" y1="186" x2="632" y2="186" stroke="rgba(255,209,102,0.28)" stroke-width="1.5"/>
  <line x1="618" y1="200" x2="632" y2="200" stroke="rgba(255,209,102,0.28)" stroke-width="1.5"/>
  <!-- Output text lines -->
  <rect x="640" y="150" width="100" height="6" rx="3" fill="rgba(255,255,255,0.16)"/>
  <rect x="640" y="163" width="85" height="6" rx="3" fill="rgba(255,255,255,0.12)"/>
  <rect x="640" y="176" width="110" height="6" rx="3" fill="rgba(255,255,255,0.16)"/>
  <rect x="640" y="189" width="75" height="6" rx="3" fill="rgba(255,255,255,0.12)"/>
  <text x="400" y="372" text-anchor="middle" font-family="monospace" font-size="12" fill="rgba(255,255,255,0.28)" letter-spacing="3">LLM-AIDED OCR</text>
</svg>
