<svg xmlns="http://www.w3.org/2000/svg" viewBox="0 0 800 400" font-family="Arial,sans-serif">
  <defs>
    <marker id="a" markerWidth="7" markerHeight="5" refX="6" refY="2.5" orient="auto">
      <polygon points="0,0 7,2.5 0,5" fill="#555"/>
    </marker>
  </defs>
  <rect width="800" height="400" fill="#f6f6f6"/>
  <rect x="0"   y="0" width="197" height="360" fill="#fdeede"/>
  <rect x="201" y="0" width="197" height="360" fill="#f0f4df"/>
  <rect x="401" y="0" width="197" height="360" fill="#dce8fc"/>
  <rect x="601" y="0" width="199" height="360" fill="#fde8e8"/>
  <line x1="199" y1="0" x2="199" y2="360" stroke="#ddd" stroke-width="2"/>
  <line x1="399" y1="0" x2="399" y2="360" stroke="#ddd" stroke-width="2"/>
  <line x1="599" y1="0" x2="599" y2="360" stroke="#ddd" stroke-width="2"/>
  <rect x="7" y="7" width="184" height="30" rx="5" fill="#c07a3a"/>
  <text x="99" y="27" text-anchor="middle" fill="white" font-size="12" font-weight="bold">Input Images</text>
  <rect x="207" y="7" width="184" height="30" rx="5" fill="#6a8c30"/>
  <text x="299" y="27" text-anchor="middle" fill="white" font-size="12" font-weight="bold">Preprocessing</text>
  <rect x="407" y="7" width="184" height="30" rx="5" fill="#3a6fb0"/>
  <text x="499" y="27" text-anchor="middle" fill="white" font-size="12" font-weight="bold">CNN Model</text>
  <rect x="607" y="7" width="184" height="30" rx="5" fill="#c04040"/>
  <text x="699" y="27" text-anchor="middle" fill="white" font-size="12" font-weight="bold">Classification</text>
  <rect x="30" y="75" width="75" height="55" rx="3" fill="white" stroke="#bbb"/>
  <rect x="26" y="71" width="75" height="55" rx="3" fill="white" stroke="#bbb"/>
  <rect x="22" y="67" width="75" height="55" rx="3" fill="#d8c4a0" stroke="#aaa"/>
  <rect x="28" y="73" width="22" height="18" rx="2" fill="#8a7a60" opacity="0.7"/>
  <rect x="56" y="78" width="18" height="14" rx="2" fill="#7a9060" opacity="0.6"/>
  <text x="73" y="147" text-anchor="middle" fill="#666" font-size="10">Conflict Zone</text>
  <rect x="30" y="160" width="75" height="55" rx="3" fill="white" stroke="#bbb"/>
  <rect x="26" y="156" width="75" height="55" rx="3" fill="white" stroke="#bbb"/>
  <rect x="22" y="152" width="75" height="55" rx="3" fill="#c0b0b0" stroke="#aaa"/>
  <rect x="28" y="158" width="25" height="18" rx="2" fill="#808090" opacity="0.7"/>
  <text x="73" y="232" text-anchor="middle" fill="#666" font-size="10">Humanitarian</text>
  <text x="99" y="270" text-anchor="middle" fill="#888" font-size="10">Multi-class dataset</text>
  <rect x="216" y="60" width="170" height="45" rx="5" fill="white" stroke="#6a8c30" stroke-width="2"/>
  <text x="301" y="79" text-anchor="middle" fill="#6a8c30" font-size="11" font-weight="bold">Data Augmentation</text>
  <text x="301" y="96" text-anchor="middle" fill="#777" font-size="10">Crop · Flip · Rotate · Jitter</text>
  <line x1="301" y1="108" x2="301" y2="135" stroke="#888" stroke-width="1.5" marker-end="url(#a)"/>
  <rect x="216" y="139" width="170" height="45" rx="5" fill="white" stroke="#aaa"/>
  <text x="301" y="158" text-anchor="middle" fill="#333" font-size="11" font-weight="bold">Normalization</text>
  <text x="301" y="175" text-anchor="middle" fill="#777" font-size="10">ImageNet mean/std</text>
  <line x1="301" y1="187" x2="301" y2="215" stroke="#888" stroke-width="1.5" marker-end="url(#a)"/>
  <rect x="216" y="219" width="170" height="40" rx="5" fill="white" stroke="#aaa"/>
  <text x="301" y="238" text-anchor="middle" fill="#333" font-size="11" font-weight="bold">Transfer Learning</text>
  <text x="301" y="252" text-anchor="middle" fill="#777" font-size="9">ImageNet pretrained</text>
  <text x="499" y="58" text-anchor="middle" fill="#3a6fb0" font-size="11" font-weight="bold">EfficientNet-B4</text>
  <rect x="430" y="70" width="12" height="90" rx="2" fill="#4a80d0" opacity="0.9"/>
  <rect x="446" y="60" width="12" height="100" rx="2" fill="#4a80d0" opacity="0.9"/>
  <rect x="462" y="68" width="12" height="92" rx="2" fill="#5a90e0" opacity="0.9"/>
  <rect x="478" y="80" width="12" height="80" rx="2" fill="#5a90e0" opacity="0.9"/>
  <rect x="494" y="90" width="12" height="70" rx="2" fill="#6aa0e8" opacity="0.9"/>
  <rect x="510" y="98" width="12" height="62" rx="2" fill="#6aa0e8" opacity="0.9"/>
  <rect x="526" y="108" width="12" height="52" rx="2" fill="#7ab0f0" opacity="0.9"/>
  <rect x="542" y="118" width="12" height="42" rx="2" fill="#7ab0f0" opacity="0.9"/>
  <rect x="558" y="128" width="12" height="32" rx="2" fill="#8ac0f8" opacity="0.9"/>
  <text x="499" y="192" text-anchor="middle" fill="#555" font-size="10">Encoder layers</text>
  <rect x="430" y="210" width="138" height="38" rx="5" fill="white" stroke="#3a6fb0" stroke-width="1.5"/>
  <text x="499" y="229" text-anchor="middle" fill="#3a6fb0" font-size="10" font-weight="bold">Global Avg Pool</text>
  <text x="499" y="243" text-anchor="middle" fill="#777" font-size="9">→ 1792-dim feature</text>
  <text x="699" y="60" text-anchor="middle" fill="#c04040" font-size="11" font-weight="bold">Output Classes</text>
  <text x="622" y="85" fill="#555" font-size="10">Combat</text>
  <rect x="670" y="75" width="110" height="11" rx="3" fill="#eee"/>
  <rect x="670" y="75" width="99" height="11" rx="3" fill="#c04040" opacity="0.8"/>
  <text x="784" y="85" fill="#555" font-size="10">0.90</text>
  <text x="622" y="109" fill="#555" font-size="10">Civilian</text>
  <rect x="670" y="99" width="110" height="11" rx="3" fill="#eee"/>
  <rect x="670" y="99" width="55" height="11" rx="3" fill="#c07a3a" opacity="0.8"/>
  <text x="784" y="109" fill="#555" font-size="10">0.50</text>
  <text x="622" y="133" fill="#555" font-size="10">Ruins</text>
  <rect x="670" y="123" width="110" height="11" rx="3" fill="#eee"/>
  <rect x="670" y="123" width="33" height="11" rx="3" fill="#6a8c30" opacity="0.8"/>
  <text x="784" y="133" fill="#555" font-size="10">0.30</text>
  <line x1="609" y1="148" x2="789" y2="148" stroke="#eee"/>
  <text x="699" y="175" text-anchor="middle" fill="#3a6fb0" font-size="11" font-weight="bold">Accuracy: 91.4%</text>
  <text x="699" y="196" text-anchor="middle" fill="#666" font-size="10">F1: 0.889  ·  AUC: 0.94</text>
  <line x1="100" y1="170" x2="213" y2="170" stroke="#555" stroke-width="2" marker-end="url(#a)"/>
  <line x1="389" y1="180" x2="414" y2="180" stroke="#555" stroke-width="2" marker-end="url(#a)"/>
  <line x1="589" y1="175" x2="614" y2="175" stroke="#555" stroke-width="2" marker-end="url(#a)"/>
  <rect x="0" y="362" width="800" height="38" fill="#2d3748"/>
  <text x="400" y="386" text-anchor="middle" fill="#ccc" font-size="11">WarLens — Conflict Zone Classifier  ·  Transfer Learning · CNN · PyTorch · IEEE</text>
</svg>
